<mxfile host="app.diagrams.net" modified="2023-07-21T15:44:29.897Z" agent="Mozilla/5.0 (Windows NT 10.0; Win64; x64) AppleWebKit/537.36 (KHTML, like Gecko) Chrome/113.0.0.0 Safari/537.36 OPR/99.0.0.0" version="21.6.2" etag="9dPkUhkjKhjI8JJZ6IrT" type="github">
  <diagram name="PÃ¡gina-1" id="PFD_zlS9a__R6SU-n234">
    <mxGraphModel>
      <root>
        <mxCell id="0" />
        <mxCell id="1" parent="0" />
      </root>
    </mxGraphModel>
  </diagram>
</mxfile>
